<svg xmlns="http://www.w3.org/2000/svg" width="24" height="24" viewBox="0 0 24 24">
  <path id="instagram-logo" d="M14.122,10.657a2.609,2.609,0,0,0-4.263,0A2.708,2.708,0,0,0,9.364,12.2a2.626,2.626,0,1,0,5.253,0,2.708,2.708,0,0,0-.495-1.543Zm1.656.019a3.748,3.748,0,0,1,.3,1.524,4.092,4.092,0,1,1-8.184,0,3.682,3.682,0,0,1,.3-1.524H5.9V16.79a1.546,1.546,0,0,0,1.5,1.5h9.174a1.546,1.546,0,0,0,1.5-1.5V10.676h-2.3ZM17.4,6.448H15.188V8.981H17.7V6.429ZM17.967.2H6.014A6.029,6.029,0,0,0,0,6.219V18.2a6.025,6.025,0,0,0,6.014,6H17.986A6.029,6.029,0,0,0,24,18.181V6.219A6.058,6.058,0,0,0,17.967.2Zm1.446,10.457h0V16.79a2.8,2.8,0,0,1-2.836,2.838H7.4A2.8,2.8,0,0,1,4.568,16.79V7.61A2.8,2.8,0,0,1,7.4,4.771h9.174A2.8,2.8,0,0,1,19.413,7.61v3.048Z" transform="translate(0 -0.2)"/>
</svg>
