<svg xmlns="http://www.w3.org/2000/svg" width="32" height="32.001" viewBox="0 0 32 32.001">
  <g id="pizza-black-white" transform="translate(92.449 32.001) rotate(180)">
    <g id="Group_56" data-name="Group 56" transform="translate(60.449 25.035)">
      <g id="Group_55" data-name="Group 55">
        <path id="Path_62" data-name="Path 62" d="M92.349,408.809l-1.575-3.124a41.254,41.254,0,0,1-28.67.041l-1.555,3.083a1.031,1.031,0,0,0,.743,1.42,48,48,0,0,0,15.089,2.422h.052a48.1,48.1,0,0,0,15.172-2.422A1.031,1.031,0,0,0,92.349,408.809Z" transform="translate(-60.449 -405.685)"/>
      </g>
    </g>
    <g id="Group_58" data-name="Group 58" transform="translate(62.593)">
      <g id="Group_57" data-name="Group 57">
        <path id="Path_63" data-name="Path 63" d="M108.354.684a1.61,1.61,0,0,0-2.634,0l-3.868,7.373c.127-.01.25-.03.381-.03,2.089,0,3.788,1.308,3.788,2.916s-1.7,2.916-3.788,2.916a4.285,4.285,0,0,1-2.878-1.042L93.179,24.589a40.151,40.151,0,0,0,13.789,2.392,40.133,40.133,0,0,0,13.906-2.433Zm.509,22.652c-2.089,0-3.788-1.308-3.788-2.916s1.7-2.916,3.788-2.916,3.788,1.308,3.788,2.916S110.952,23.337,108.863,23.337Z" transform="translate(-93.179)"/>
      </g>
    </g>
  </g>
</svg>
