<svg id="rating" xmlns="http://www.w3.org/2000/svg" width="32" height="32" viewBox="0 0 32 32">
  <path id="Path_75" data-name="Path 75" d="M16,0A16,16,0,1,0,32,16,16.018,16.018,0,0,0,16,0Zm0,29.091A13.091,13.091,0,1,1,29.091,16,13.106,13.106,0,0,1,16,29.091Z"/>
  <path id="Path_76" data-name="Path 76" d="M87.194,75.572l-4.608-.67-2.061-4.176a1.456,1.456,0,0,0-2.611,0L75.854,74.9l-4.608.67a1.456,1.456,0,0,0-.807,2.483l3.334,3.25L72.986,85.9A1.456,1.456,0,0,0,75.1,87.43l4.121-2.167,4.121,2.167a1.455,1.455,0,0,0,.677.167h0a1.458,1.458,0,0,0,1.417-1.781l-.774-4.51L88,78.056a1.456,1.456,0,0,0-.807-2.483Zm-5.108,4.183a1.456,1.456,0,0,0-.419,1.289l.418,2.436L79.9,82.33a1.456,1.456,0,0,0-1.355,0l-2.188,1.15.418-2.436a1.456,1.456,0,0,0-.419-1.289l-1.77-1.725,2.446-.356a1.456,1.456,0,0,0,1.1-.8l1.094-2.216,1.094,2.216a1.456,1.456,0,0,0,1.1.8l2.446.356Z" transform="translate(-63.22 -63.144)"/>
</svg>
