<svg xmlns="http://www.w3.org/2000/svg" width="24" height="24" viewBox="0 0 24 24">
  <path id="facebook-logo" d="M22.092.684H1.91A1.865,1.865,0,0,0,.56,1.269,2.049,2.049,0,0,0,0,2.683v20a1.955,1.955,0,0,0,1.91,2H22.092a1.956,1.956,0,0,0,1.908-2v-20a1.957,1.957,0,0,0-1.908-2ZM16.132,7.81a2.657,2.657,0,0,0-1.384-.544,1.61,1.61,0,0,0-1.109.34,1.763,1.763,0,0,0-.317,1.227v.9H15.91l-.56,2.493H13.322v8.284H10.071V12.222H8.553V9.729h1.519V8.777a4.866,4.866,0,0,1,.341-2.1,2.909,2.909,0,0,1,1.27-1.353,5.632,5.632,0,0,1,2.434-.466,8.892,8.892,0,0,1,2.608.6Z" transform="translate(0 -0.684)"/>
</svg>
