<svg xmlns="http://www.w3.org/2000/svg" width="28" height="32" viewBox="0 0 28 32">
  <g id="order" transform="translate(-80 -10)">
    <path id="Path_77" data-name="Path 77" d="M107.633,18.144a4.106,4.106,0,0,0-.877-1.358l-5.683-5.571A4.945,4.945,0,0,0,98.083,10H82.333A2.308,2.308,0,0,0,80,12.286V39.714A2.308,2.308,0,0,0,82.333,42h23.333A2.308,2.308,0,0,0,108,39.714v-20a4.047,4.047,0,0,0-.367-1.571Zm-8.22-5.326,5.707,5.59a1.929,1.929,0,0,1,.4.731H98.667V12.423a2.111,2.111,0,0,1,.747.4Zm6.253,26.9H82.333V12.286h14v7.429a1.637,1.637,0,0,0,.51,1.215,1.706,1.706,0,0,0,1.24.5h7.583V39.714Zm-5.833-9.143H88.167a1.143,1.143,0,1,0,0,2.286H99.833a1.143,1.143,0,1,0,0-2.286Zm0-4.571H88.167a1.143,1.143,0,1,0,0,2.286H99.833a1.143,1.143,0,1,0,0-2.286ZM87,22.571a1.156,1.156,0,0,0,1.167,1.143h4.54a1.156,1.156,0,0,0,1.167-1.143h0a1.156,1.156,0,0,0-1.167-1.143h-4.54A1.156,1.156,0,0,0,87,22.571Z" transform="translate(0 0)"/>
  </g>
</svg>
