<svg xmlns="http://www.w3.org/2000/svg" xmlns:xlink="http://www.w3.org/1999/xlink" width="2097.995" height="2619.846" xmlns:v="https://vecta.io/nano"><style><![CDATA[.B{opacity:.3}.C{fill:#650000}.D{fill:#fff}.E{fill:#ee1822}]]></style><path d="M1958.435 1037.475a2231.38 2231.38 0 0 0-226.659 131.07c-61.111 40.14-121.4 83.75-180.311 130.39v.05c-318.55 252.1-597.32 593.73-749.95 964.59a1742.43 1742.43 0 0 0-72.2 211.83c-34.24 127.1-195.39 166.561-284 69.17-131.17-144.17-231.75-337.26-292.73-560.59q-11-40.07-20.19-81.38c-87.34-390.92-57.78-862.59 132.08-1323.73q20.6-50.12 43.78-100.1c636.64-197.2 1167.53 74.07 1650.18 558.7z" fill="#fbbf01"/><path d="M567.225 2601.685c-46.7 0-91.08-19.41-123.78-55.36-130.82-143.78-232.25-338-293.32-561.66-7.25-26.39-14.05-53.81-20.22-81.5-93.78-419.75-46.82-890.41 132.21-1325.28 14.07-34.22 28.81-67.94 43.83-100.21l.48-1 1.1-.33c305-94.47 594.31-86.72 884.5 23.71 254.44 96.82 505.73 272 768.26 535.63l2.53 2.54-3.21 1.6c-77.948 39.179-153.537 82.883-226.38 130.89-60.45 39.7-120.75 83.29-179.25 129.56l-.87.74c-337.22 266.88-603.27 609.07-749.16 963.54a1746.85 1746.85 0 0 0-72.1 211.52c-16.37 60.77-62.66 105.89-123.81 120.69a173.35 173.35 0 0 1-40.81 4.92zm-257.08-2120.78c-14.81 31.88-29.36 65.17-43.24 99-178.64 433.9-225.51 903.46-132 1322.18 6.15 27.61 12.93 54.95 20.16 81.26 60.86 222.88 161.88 416.36 292.15 559.54 40.85 44.91 100.48 63.19 159.52 48.9 59.29-14.35 104.16-58.09 120-117a1749.13 1749.13 0 0 1 72.31-212.15c146.09-355 412.38-697.63 749.87-964.95l.87-.73c58.89-46.63 119.61-90.54 180.49-130.52 72.017-47.476 146.714-90.755 223.72-129.62-553.39-554.74-1075.91-731.37-1643.85-555.91z" class="C"/><path d="M510.955 2551.785a163.77 163.77 0 0 0 71.65 46.49c-48.64 4.45-99.55-12.24-137.26-53.7-369.53-406.12-495.94-1200.37-180.84-1965.7q20.6-50.12 43.78-100.1c204.79-63.44 398.63-78.41 583.44-53.32-165-13.7-337.11 4.55-517.84 60.53q-23.23 49.89-43.78 100.09c-315.1 765.34-188.69 1559.59 180.85 1965.71z" opacity=".6" class="D"/><g class="C"><path d="M1958.435 1037.475a2231.38 2231.38 0 0 0-226.659 131.07c-3.411-.74-6.861-1.58-10.251-2.48l-90.53 64.06c-8.07-45.08 11-99.74 11-99.74l.2.07a264.23 264.23 0 0 1-41.89-34.67c-315.65-321.25-921.26-532-1330.4-516.85-1.77 0-3.59 0-5.36-.06q20.6-50.12 43.78-100.1c636.57-197.2 1167.46 74.07 1650.11 558.7z" class="B"/><use xlink:href="#B" class="B"/><use xlink:href="#B" class="B"/><path d="M567.095 2619.845c-51.71 0-100.86-21.49-137.07-61.31-197.76-217.33-324.55-539-357-905.72-34.88-393.82 40-802.81 216.49-1182.76 4.821-10.38 17.145-14.886 27.525-10.065s14.886 17.145 10.065 27.525c-382.87 824.17-222.6 1651.67 133.6 2043.13 36.32 39.93 89.36 56.18 141.84 43.48 52.75-12.77 92.67-51.68 106.79-104.1 78.56-291.8 244-587.08 478.44-853.93 218.48-248.69 488.9-460.76 761.43-597.17 10.221-5.041 22.595-.882 27.697 9.309s1.015 22.59-9.147 27.751c-577.11 288.86-1066.75 861.41-1218.43 1424.86-18.12 67.27-69.36 117.21-137.06 133.6-14.79 3.582-29.953 5.395-45.17 5.4z"/></g><path d="M1680.225 1585.635c-17 24.35-44 40.66-73.72 41.1-62.28.92-92.24-60.79-93.3-115.63q-.09-3.53 0-7c.52-43.62 13.15-86.53 14.62-130.25 1.71-47.81-14.5-101.86-59-121.6a60.76 60.76 0 0 0-29.09-4.65c-17.13 1.3-33.89 9.2-43.51 22.79-14.64 20.8-16.84 47.45-22.78 72.12-5.86 24.37-18.47 50.45-42.29 58.15-29.24 9.45-59.71-12.92-90.33-10.81-30.09 2.12-54.13 28.3-63.38 57s-6.76 59.7-4.18 89.75c3.9 46.13 19.73 111.19 13.76 157.07s-32.74 92.08-76.34 107.57c-28.85 10.22-62.52 6.52-88.21 23l-.05.05s-.12.09-.34.22c-1.23.8-2.42 1.61-3.55 2.48-.181.146-.371.28-.57.4-31.93 24.53-35 72.67-34.5 113.84-9.14 106-86.54 67.67-131.33 17.62a28 28 0 0 0-15.44-8.89c-16.07-3.22-33.76 8-33.91 26.82-.02.173-.02.347 0 .52.22 18.36 1.62 37.44-5.46 54.43-11.18 26.81-40.77 41.9-54.13 67.69-16.53 31.9-3.82 71.76 17.56 100.63s50.5 51.15 72.51 79.47a207.26 207.26 0 0 1 42.86 112.32c2.34 33.77-5.15 70.62-30.8 93-27.49 23.92-70 17.27-91.14-12.46-13.49-19-27.26-36.92-44.23-49.47-12.87-9.54-27.53-16-45.26-17.32l-6.68-398.37 449.78-528.79 141.54-166.44 162.71-191.26 101.32-5.28h56.54l73.23-.09c-35.27 34.59-12.8 107.51-3.59 156s31.86 93.35 48 140c19.59 56.89 29.36 121.7-7.32 174.27z" fill="#fbbf01"/><path d="M665.065 2399.135a91.3 91.3 0 0 1 36.85 7.45 115.79 115.79 0 0 1 31.35 20.33 219.87 219.87 0 0 1 24.53 25.72c3.67 4.43 7.24 8.94 10.68 13.31 2.537 3.027 5.401 5.764 8.54 8.16 6.175 4.734 13.492 7.75 21.21 8.74 7.36 1.144 14.894.248 21.78-2.591 3.3-1.412 6.384-3.284 9.16-5.56l2.12-1.68 2.15-2.12c1.51-1.32 2.67-3 4.06-4.48a71.18 71.18 0 0 0 11.69-22.45c2.757-8.791 4.403-17.892 4.9-27.091a146.67 146.67 0 0 0-1.1-28.89c-2.522-19.624-8.054-38.741-16.4-56.68a185.1 185.1 0 0 0-14.67-25.68 207.4 207.4 0 0 0-18.77-23.41c-13.91-15.33-30.29-30.4-46-48.13a213.99 213.99 0 0 1-22.08-29.49 153.63 153.63 0 0 1-15.71-35.06 112.8 112.8 0 0 1-5-40.08 89.1 89.1 0 0 1 12.64-40.85c7.46-12.18 16.52-21.25 24.55-29.21s15.31-14.93 20.35-21.77c4.768-6.172 7.802-13.504 8.79-21.24 1.3-8.5 1.16-18.35.93-29.49l-.07-4.25v-2.77l.27-3.55a33.35 33.35 0 0 1 1.18-7.09c.516-2.407 1.284-4.753 2.29-7a47.53 47.53 0 0 1 18.62-21.9 50.11 50.11 0 0 1 26.78-7.71 48.51 48.51 0 0 1 27.15 8.35 36.4 36.4 0 0 1 5.59 4.42l2.53 2.45 1.16 1.17.63.68c1.69 1.83 3.36 3.68 5.13 5.44 3.46 3.59 7.12 7 10.83 10.26 7.263 6.412 15.129 12.105 23.49 17 8 4.66 16.45 8.08 23.57 9.12a25 25 0 0 0 9.2 0c2.355-.491 4.565-1.518 6.46-3 4-2.83 7.94-9.36 10.64-17.53 2.751-9.01 4.498-18.296 5.21-27.69l-.08 2c-.19-22.11.31-45.18 5.93-69.12a126.4 126.4 0 0 1 14.09-35.74 90.06 90.06 0 0 1 28.63-29.83c12-7.61 24.95-11.78 36.71-14.28s22.85-3.8 32.83-5.47 18.92-3.55 26.46-6.86a78.39 78.39 0 0 0 21.46-13.51c13.06-11.44 23.34-27.27 29.83-44.71 3.287-8.737 5.686-17.782 7.16-27 1.415-9.407 2-18.92 1.75-28.43-.49-19.87-3.07-40.57-6.09-61.55s-6.62-42.3-8.73-64.95c-1.84-21.56-3.91-44.19-1.45-68.34a149.34 149.34 0 0 1 8.29-36.49 114.6 114.6 0 0 1 19.86-33.75 95.32 95.32 0 0 1 32.3-25 81.84 81.84 0 0 1 20.73-6.38 87.38 87.38 0 0 1 21.34-.57c13.39 1.39 24.9 4.9 35 7.69s19.08 5 26.28 5.13c7.09-.06 12.26-1.56 17.29-5.42s9.75-10.12 13.45-17.78c1.929-3.966 3.561-8.071 4.88-12.28 1.41-4.37 2.51-8.64 3.61-13.65 2.19-9.88 4-20.6 6.85-32s6.67-23.62 13.55-35.43c.81-1.47 1.71-2.93 2.68-4.36a51.18 51.18 0 0 1 3.08-4.4c2.316-3.082 4.881-5.968 7.67-8.63a78.47 78.47 0 0 1 18.17-12.63 86.2 86.2 0 0 1 41.08-8.9 78 78 0 0 1 21.25 3.44 44.58 44.58 0 0 1 5.24 1.82 43.55 43.55 0 0 1 4.95 2.12c3 1.53 6 3 8.95 4.66a106 106 0 0 1 29.71 26.34c7.774 10.095 14.067 21.247 18.69 33.12 9.16 23.14 12.56 47.15 12.4 70.92-.3 23.58-3.73 45.7-7.06 67s-6.63 41.77-7.43 61.57c-.21 4.92-.26 9.89-.09 14.62l.35 7 .8 7a129.64 129.64 0 0 0 6.48 27.06 109 109 0 0 0 12 23.91c4.727 6.822 10.54 12.821 17.21 17.76 6.41 4.76 13.73 7.48 21.41 9.17 2 .28 3.88.79 5.88 1l6.12.25c4.026.16 8.056-.176 12-1 15.83-2.91 30.81-12.23 41.65-25.27 2.798-3.333 5.301-6.903 7.48-10.67 2.58-3.71 4.36-7.85 6.48-11.81a127.13 127.13 0 0 0 8.37-25.73c3.66-17.91 3.59-37.13.68-56.49a247.68 247.68 0 0 0-6-29.12c-2.49-9.74-5.51-19.37-8.81-29.19l-21.47-60.36c-14.65-40.72-27.89-83.64-33.55-128a285.71 285.71 0 0 1-2.66-34c-.297-11.689.476-23.38 2.31-34.928a120 120 0 0 1 10.64-34.61 87.84 87.84 0 0 1 22.58-29.08 10.4 10.4 0 0 1 14.79 14.44l-.28.35c-11.58 14.73-16.33 32.86-17 52.15-.55 19.33 2.14 39.41 6.39 59.45 2 10 4.58 20.09 7.24 30.13s5.39 20.1 8.58 29.94q9.56 29.63 21 59.45l22.72 60.7c7.47 21.06 13.8 43.19 17 66.36 3.39 23.06 3.71 47.48-1.3 71.68-2.555 12.189-6.522 24.039-11.82 35.31-2.92 5.52-5.61 11.19-9.15 16.32-3.322 5.464-7.084 10.648-11.25 15.5-16.81 19.72-40.44 34.47-67 39.08a91.92 91.92 0 0 1-20.05 1.5l-10-.52c-3.33-.36-6.68-1.1-10-1.68-13.2-2.86-26.32-8.2-37.22-16.28a117.67 117.67 0 0 1-27.31-28.34 150.49 150.49 0 0 1-16.7-33.58 177.57 177.57 0 0 1-8.42-35.5l-1-9-.48-9.09c-.2-6-.13-11.78.11-17.59 2.07-46.28 14.14-88.15 14.46-127.31.17-19.11-2.75-38.42-9.48-55.26s-17.13-31-30.95-39c-1.75-1-3.58-1.81-5.34-2.77-1.555-.744-3.163-1.373-4.81-1.88a37.21 37.21 0 0 0-10.45-1.66 45.09 45.09 0 0 0-21.26 4.54c-2.975 1.51-5.736 3.41-8.21 5.65a28.86 28.86 0 0 0-3 3.41 17.64 17.64 0 0 0-1.53 2.19 23.7 23.7 0 0 0-1.54 2.49c-4 6.77-6.83 15.21-9.18 24.63s-4.16 19.89-6.6 31c-1.2 5.48-2.75 11.62-4.65 17.47a131.53 131.53 0 0 1-7 17.63c-5.66 11.56-13.48 23.4-25.66 32.67a68.08 68.08 0 0 1-20.53 10.7 76.13 76.13 0 0 1-22.35 3.16c-14.34-.35-26.41-3.75-36.88-6.65s-19.8-5.55-27.82-6.35a46 46 0 0 0-10.78.22 40.29 40.29 0 0 0-9.95 3.1c-6.998 3.394-13.182 8.258-18.13 14.26-5.413 6.394-9.688 13.67-12.64 21.51a108.83 108.83 0 0 0-5.85 26.21c-2 18.67-.35 39.12 1.51 60.29 1.86 20.14 5.44 41.29 8.48 62.76s5.92 43.53 6.5 66.63a203.41 203.41 0 0 1-2.26 35.78 180.6 180.6 0 0 1-9.32 35.15c-8.54 22.71-22 44.25-41.28 61.21-9.753 8.602-20.841 15.56-32.83 20.6-12.22 5.23-24.56 7.66-35.69 9.49s-21.57 3.06-30.73 5.08-16.91 4.75-23.13 8.66c-12.55 7.83-20.55 22.33-24.81 40.35s-5 38.22-4.79 59v.13a17.14 17.14 0 0 1-.08 1.9c-1.12 12.09-3 24.45-7.18 37.22a92.29 92.29 0 0 1-8.84 19.31 63.22 63.22 0 0 1-15.87 18 57.59 57.59 0 0 1-23.35 10.71 66.26 66.26 0 0 1-23.73.379c-14.76-2.31-27-7.88-38-14.16a191.26 191.26 0 0 1-30.11-21.72c-4.55-4-9-8.16-13.21-12.51-2.14-2.14-4.18-4.38-6.23-6.61l-.77-.84c-.096-.106-.207-.197-.33-.27a6.01 6.01 0 0 1-.46-.42c-.233-.301-.535-.541-.88-.7a6.89 6.89 0 0 0-4-1.21 8.73 8.73 0 0 0-4.57 1.31 6.13 6.13 0 0 0-2.51 2.85 1.59 1.59 0 0 0-.27.86 1.91 1.91 0 0 0-.17 1.05 2.81 2.81 0 0 1-.09.58.86.86 0 0 0 0 .37v1l.06 4c.17 10.9.63 23.13-1.4 36.61a92.01 92.01 0 0 1-5.66 20.69 97 97 0 0 1-10.63 18.64c-8.1 10.94-16.9 19.26-24.5 26.86s-14 14.52-18 21.28c-7.87 12.87-8.49 29.76-3.09 47.08 2.781 8.824 6.679 17.255 11.6 25.09a172.52 172.52 0 0 0 17.91 23.2c13.7 15.27 30.11 29.93 46 47.16a251.97 251.97 0 0 1 22.65 28.19 230.06 230.06 0 0 1 18.23 31.72 224.58 224.58 0 0 1 20.11 70.08c2.82 24.21 1.91 50-6.79 74.95a113.45 113.45 0 0 1-19.8 35.4c-2.39 2.56-4.57 5.29-7.22 7.62l-3.86 3.58-4.4 3.42a78.9 78.9 0 0 1-19.58 10.63c-13.876 5.041-28.865 6.196-43.35 3.341a82 82 0 0 1-38.12-18.871 79.9 79.9 0 0 1-14-15.91l-8.87-13.42c-5.716-8.506-11.951-16.651-18.67-24.39-13.14-15-28.82-25.44-48.22-29.24h-.25a10.4 10.4 0 0 1 1.87-20.61z" class="C"/><ellipse cx="172.59" cy="203.33" rx="172.59" ry="203.33" transform="matrix(.279997 -.960001 .960001 .279997 534.494 721.581)" class="E"/><path d="M597.155 596.145c26.62-91.53 135.61-140.3 243.43-109 60.86 17.7 108.32 57.13 133.36 104.58-15-65.1-71-123.37-148.9-146-107.82-31.33-216.82 17.45-243.43 108.98-11.59 39.88-5.63 81.28 13.7 117.92a150.63 150.63 0 0 1 1.84-76.48z" opacity=".55" class="D"/><g class="C"><path d="M976.045 738.965c-26.62 91.51-135.59 140.3-243.41 109-102-29.7-166.51-120.43-150.51-207.69 17.95 61.39 72.32 115.36 146.56 137 107.81 31.38 216.78-17.41 243.41-109 1.421-4.859 2.573-9.794 3.45-14.78 8.1 27.68 8.79 56.99.5 85.47z" class="B"/><path d="M972.095 668.225c-26.63 91.56-135.6 140.35-243.41 109-100.76-29.26-164.89-118.18-151.09-204.37 18.75 60.32 72.58 113 145.75 134.31 107.83 31.34 216.78-17.4 243.41-109 1.737-5.957 3.073-12.024 4-18.16 8.88 28.55 9.88 58.84 1.34 88.22z" class="B"/><path d="M794.225 804.785c-23.916-.034-47.705-3.458-70.66-10.17-117.26-34.1-188.76-144-159.4-245s148.64-155.4 265.91-121.3 188.76 144 159.4 245h0c-23.39 80.53-104.03 131.47-195.25 131.47zm-35-350.39c-75.33 0-141.34 40.64-160.17 105.37-23.78 81.78 36.65 171.52 134.71 200s197.17-14.82 221-96.6-36.65-171.52-134.71-200a217.64 217.64 0 0 0-60.83-8.77zm212.91 213.86z"/></g><ellipse cx="172.59" cy="203.33" rx="172.59" ry="203.33" transform="matrix(.279997 -.960001 .960001 .279997 0 1876.199)" class="E"/><g class="C"><path d="M450.695 1898.695c-26.58 91.56-135.59 140.35-243.41 109a235.35 235.35 0 0 1-54.67-23.67q-11-40.07-20.19-81.38a233.08 233.08 0 0 0 62.43 28.43c107.82 31.39 216.83-17.4 243.41-108.91 2.643-9.03 4.392-18.298 5.22-27.67 14.04 33.03 17.41 69.2 7.21 104.2z" class="B"/><path d="M438.225 1822.125c-26.58 91.51-135.59 140.3-243.41 108.91-83.53-24.29-141.87-89.53-151.55-160.28 26.8 33 65.69 59.49 112.46 73.07 107.86 31.4 216.83-17.4 243.46-109a149.35 149.35 0 0 0 4.49-62.2c35.11 43.22 49.66 97.63 34.55 149.5z" class="B"/></g><path d="M443.225 1763.845c-22-54.79-73.22-101.54-141.09-121.3-107.83-31.33-216.79 17.46-243.41 109-5.483 18.875-7.182 38.647-5 58.18-13-32.27-15.8-67.29-5.93-101.18 26.63-91.5 135.59-140.3 243.42-109 85.13 24.78 144.08 92.07 152.01 164.3z" opacity=".6" class="D"/><path d="M260.895 1958.725a254.9 254.9 0 0 1-71.12-10.26c-56.27-16.36-103.86-50.49-134-96.1-30.76-46.54-39.77-99.41-25.39-148.87s50.34-89.26 101.26-112.05c49.89-22.32 108.36-25.61 164.64-9.25s103.87 50.49 134 96.1c30.75 46.54 39.77 99.41 25.39 148.87s-50.34 89.26-101.26 112c-29.45 13.028-61.318 19.693-93.52 19.56zm-35.73-350.54c-27.096-.146-53.917 5.429-78.71 16.36-41 18.37-69.89 50-81.25 89.07s-4 81.25 20.82 118.76c25.41 38.44 65.85 67.3 113.88 81.27s97.65 11.29 139.7-7.53c41-18.37 69.9-50 81.26-89.07h0c11.36-39.07 4-81.25-20.83-118.76-25.4-38.44-65.85-67.3-113.87-81.27-19.814-5.809-40.352-8.782-61-8.83z" class="C"/><ellipse cx="142.53" cy="167.92" rx="142.53" ry="167.92" transform="matrix(.279159 -.960245 .960245 .279159 902.114 1145.873)" class="E"/><g class="C"><path d="M1265.805 1190.525c-22 75.6-112 115.9-201 90s-143.42-108.2-121.41-183.75c.74-2.47 1.48-4.89 2.41-7.24 17.4 46.57 60.36 86.68 117.68 103.35 86.16 25 173.28-11.87 198.63-82.77 9.69 25.78 11.55 53.5 3.69 80.41z" class="B"/><path d="M1264.485 1102.935c-22 75.55-112 115.84-201 90-76.5-22.27-127.43-86.18-126.29-151.67 19.53 42.38 60.38 78 113.66 93.53 89.08 25.89 179.08-14.41 201-90a122.01 122.01 0 0 0 4.88-32c13.08 28.34 16.56 59.78 7.75 90.14z" class="B"/></g><path d="M1268.165 1086.035c-11.19-55.17-58-105-123.73-124.18-89-25.88-179.08 14.41-201 90-1.606 5.544-2.835 11.19-3.68 16.9a123.51 123.51 0 0 1 2.27-59.63c22-75.6 112-115.84 201-90 82.47 24.01 135.2 96.3 125.14 166.91z" opacity=".55" class="D"/><path d="M1117.995 1218.905c-20.177-.039-40.247-2.938-59.61-8.61-47.19-13.72-87.12-42.36-112.42-80.65-25.92-39.22-33.51-83.81-21.37-125.57s42.46-75.32 85.37-94.53c41.89-18.75 91-21.51 138.14-7.79s87.11 42.37 112.42 80.65c25.92 39.22 33.51 83.82 21.36 125.57h0c-12.14 41.76-42.46 75.33-85.37 94.53a192 192 0 0 1-78.52 16.4zm-29.51-289.5a155.8 155.8 0 0 0-63.71 13.24c-33 14.79-56.24 40.2-65.36 71.56s-3.16 65.26 16.8 95.45c20.57 31.12 53.34 54.5 92.29 65.83s79.15 9.17 113.2-6.08c33-14.78 56.25-40.19 65.36-71.55h0c9.12-31.37 3.15-65.26-16.8-95.45-20.57-31.13-53.35-54.51-92.3-65.83a177.28 177.28 0 0 0-49.48-7.17z" class="C"/><path d="M2068.355 895.545c-9.425 29.528-23.981 57.165-43 81.64-94.92 123.15-277.67 129.35-386.63 18.44-315.63-321.28-921.27-532-1330.41-516.85-200.24 1.09-246.82-346.73-27.65-444.24 373.45-91.13 1515.65 285.49 1765.22 693.44 30.72 50.29 40.16 111.36 22.47 167.57z" fill="#dd7f33"/><path d="M2068.355 895.545a262.61 262.61 0 0 1-43.05 81.63c-94.88 123.14-277.65 129.38-386.63 18.44-315.59-321.24-921.25-532-1330.39-516.84-147.42.79-211.53-187.45-147.71-325.74 20.47 83.08 79.78 149 167.68 147.2 408.91-21.47 1017.68 179.92 1338.23 496.34 110.63 109.19 293.28 100.23 386.29-24.37 3.11-4.14 6.08-8.4 8.95-12.72 17.57 43.15 20.79 91.13 6.63 136.06z" class="B C"/><path d="M2070.535 888.075a210.37 210.37 0 0 0-31.13-101.34c-249.58-407.96-1391.77-784.58-1765.18-693.44-78.24 34.81-122.62 101.54-138.23 172.89.4-91.42 45.13-187.34 144.69-231.65 373.45-91.13 1515.65 285.49 1765.22 693.44 29.32 48.05 39.32 106 24.63 160.1z" opacity=".55" class="D"/><g class="C"><path d="M1825.965 1095.145a283.34 283.34 0 0 1-202-85c-327.52-333.39-937.5-524.67-1314.87-510.67h-1.66c-90.59 0-163.37-66.48-185.58-169.66-23.4-108.71 13.69-253.41 150.41-314.23a21.36 21.36 0 0 1 3.51-1.2c184.74-45.08 554.16 17.82 941.13 160.25 191.68 70.55 368.49 154.37 511.28 242.41 161.73 99.71 274.57 200.68 335.39 300.1 34.7 56.73 43.67 124 24.6 184.6a283.7 283.7 0 0 1-46.39 88.07 271.31 271.31 0 0 1-198.88 104.81q-8.52.525-16.94.52zm-1476.23-637.85c196.86 0 436.77 48.15 666.11 134.34 260.69 98 487.14 236.29 637.63 389.47a241.8 241.8 0 0 0 186.89 72.17c67.72-4.07 127.57-35.58 168.55-88.74 17.552-22.538 30.985-47.999 39.68-75.21l19.76 6.22-19.76-6.22c15.47-49.16 8-104-20.42-150.53-109.44-178.9-418.09-375.26-825.63-525.25-372.63-137.14-739.89-201-915.18-159.31-114.2 51.86-144.93 174.47-125.05 266.87 14.28 66.29 59.86 137 145 137h.53q20.59-.8 41.89-.81z"/><path d="M2042.855 767.345c-12-19-26.49-36.07-43.6-49.69a161.9 161.9 0 0 0-57.63-29.59c-41.89-11.82-88.67-6-128.22 14a183.56 183.56 0 0 0-52.93 39.47c-14.93 16.25-26.26 35.23-34.72 55.16-8.567 20.268-14.136 41.676-16.53 63.55-2.74 22.34-2.1 45.49-.68 70.08v.22a7.07 7.07 0 0 1-13.16 4c-13.09-22.27-20.78-48-22.88-74.77-1.975-27.197 2.255-54.487 12.37-79.81 10.15-25.45 26.25-48.13 45.13-67.38a244.87 244.87 0 0 1 64.84-47.53c24.101-12.188 50.17-20.013 77-23.11 27.085-3.144 54.523-1.036 80.81 6.21a203.19 203.19 0 0 1 72.36 37.1c21.29 16.95 38.91 37.82 53 60.34a20.72 20.72 0 0 1-16.687 32.189 20.72 20.72 0 0 1-18.413-10.189z"/><ellipse cx="16.4" cy="24.17" rx="16.4" ry="24.17" transform="matrix(.109214 -.994018 .994018 .109214 525.193 2330.97)" class="B"/><ellipse cx="22.87" cy="33.71" rx="22.87" ry="33.71" transform="matrix(.156607 -.987661 .987661 .156607 577.124 1738.182)" class="B"/><ellipse cx="10.43" cy="15.37" rx="10.43" ry="15.37" transform="matrix(.156607 -.987661 .987661 .156607 677.411 1779.526)" class="B"/><ellipse cx="10.43" cy="15.37" rx="10.43" ry="15.37" transform="matrix(.109214 -.994018 .994018 .109214 1301.298 898.91)" class="B"/><ellipse cx="25.9" cy="38.17" rx="25.9" ry="38.17" transform="matrix(.109214 -.994018 .994018 .109214 396.656 2300.356)" class="B"/><ellipse cx="25.9" cy="38.17" rx="25.9" ry="38.17" transform="matrix(.109214 -.994018 .994018 .109214 1336.629 975.69)" class="B"/></g><path d="M461.565 2006.305c25.35-34.62 42-37.72 53.54-29.27s13.61 25.26-11.75 59.88-55.27 55.84-66.81 47.38-.32-43.37 25.02-77.99zm503.37-447.38c22.81-31.14 37.78-33.93 48.16-26.33s12.23 22.72-10.57 53.85-49.71 50.21-60.09 42.61-.3-39 22.5-70.13zm-537.71-806.42c-36.94-21.86-41.65-38.12-34.37-50.43s23.81-16 60.74 5.84 61 49.55 53.69 61.86-43.15 4.58-80.06-17.27zm343.22 266.09c35.07-24.73 51.84-22.37 60.08-10.68s4.85 28.28-30.22 53-70.19 35.31-78.43 23.62 13.5-41.21 48.57-65.94z" fill="#029e5e"/><g class="C"><path d="M1680.225 1585.635c-17 24.35-44 40.66-73.72 41.1-62.28.92-92.24-60.79-93.3-115.63q-.09-3.53 0-7a128.5 128.5 0 0 1 12.35 5.68c102.27 52.93 123.18-52.92 65.35-202.58-15.37-39.8-22.77-75.86-25.35-107.36a78 78 0 0 1 77.59-84.47h0c-35.27 34.59-12.8 107.51-3.59 156s31.86 93.35 48 140c19.58 56.88 29.35 121.69-7.33 174.26zm-843.93 364.21a3.48 3.48 0 0 1 .41.1c-16.07-3.22-33.76 8-33.91 26.82a2.26 2.26 0 0 0 0 .52c.22 18.36 1.62 37.44-5.46 54.43-11.18 26.81-40.77 41.9-54.13 67.69-16.53 31.9-3.82 71.76 17.56 100.63s50.5 51.15 72.51 79.47a207.26 207.26 0 0 1 42.85 112.34c2.34 33.77-5.15 70.62-30.8 93-27.49 23.92-70 17.27-91.14-12.46-13.49-19-27.26-36.92-44.23-49.47 3.22.14 7.43 1.18 12.79 3.12 92.72 33.64 109-55.76 57.9-109.59s-67.86-84.32-93.15-174.39 54.63-117.77 54.63-117.77-15.71-97.44 94.17-74.44z" class="B"/><path d="M1017.975 1827.385c-31.93 24.53-35 72.67-34.5 113.84-9.14 106-86.54 67.67-131.33 17.62a28 28 0 0 0-15.44-8.89c109.53 22.82 136.41-35.82 145.51-71.25 7.01-27.17 26.84-44.63 35.76-51.32z" class="B"/></g><path d="M1018.545 1826.985l3.55-2.48-3.55 2.48z" fill="#792937"/><g class="C"><path d="M1020.085 1829.055l-3.11-4.13 1.35-1 2.48-1.67 2.7 4.43-2.33 1.57z"/><path d="M1439.745 1247.575c-17.13 1.3-33.89 9.2-43.51 22.79-14.64 20.8-16.84 47.45-22.78 72.12-5.86 24.37-18.47 50.45-42.29 58.15-29.24 9.45-59.71-12.92-90.33-10.81-30.09 2.12-54.13 28.3-63.38 57s-6.76 59.7-4.18 89.75c3.9 46.13 19.73 111.19 13.76 157.07s-32.74 92.08-76.34 107.57c-28.85 10.22-62.52 6.52-88.21 23 2.95-2.12 114.23-83.86 93-233.57-6.78-47.91-9.05-83.7-7.69-112.21 3-62 23-89.88 50.29-133.26 23.8-37.77 56.26-30.14 91.25-33.18 23.73-2.08 48.67-9 72.94-38.26 60.07-72.44 117.47-26.16 117.47-26.16z" class="B"/><path d="M437.555 1379.785c-17.48 86.68 14.48 143.28 59 162.29 37.44 16.12 83.71 5.48 116.61-36.29 16-20.29 28.84-47.88 36-83.32-47.86-59.85-144.16-75.74-211.61-42.68z"/></g><path d="M497.735 1517.585a60 60 0 0 0 .9 25.35c37.83 15.18 83.83 3.39 115.67-39.19-10.779-24.821-36.562-39.633-63.433-36.443s-48.469 23.628-53.137 50.283z" class="E"/><path d="M531.315 1564.845a103.21 103.21 0 0 1-40.95-8.51c-44.27-18.93-88.68-77.34-68-179.64a15.58 15.58 0 0 1 8.39-10.89c76.5-37.49 179.92-16.44 230.53 46.94a15.53 15.53 0 0 1 3.09 12.77c-7.28 36.09-20.41 66.33-39 89.88-25.33 32.1-59.58 49.45-94.06 49.45zm-80-174.3c-13.45 79.16 18.73 123.31 51.26 137.22 33.3 14.34 71.88 1.92 98.29-31.62 14.35-18.15 24.89-41.49 31.39-69.49-41.35-45.65-120.8-61.5-180.9-36.09z" class="C"/><g class="E"><ellipse cx="34.62" cy="63.47" rx="34.62" ry="63.47" transform="matrix(.321439 -.94693 .94693 .321439 712.993 1566.847)"/><ellipse cx="34.62" cy="63.47" rx="34.62" ry="63.47" transform="matrix(.321439 -.94693 .94693 .321439 184.509 1402.89)"/></g><path d="M238.065 1204.505c.927-15.328 4.303-30.409 10-44.67a127.65 127.65 0 0 1 26.46-40.55c11.81-11.93 26.85-22 44.3-27.21 36.411-11.081 75.895 1.248 99.53 31.08a106.06 106.06 0 0 1 21 47 131.35 131.35 0 0 1-.34 48 161 161 0 0 1-15.31 42.76 7.91 7.91 0 0 1-14.9-4.16v-.35c.86-14 1.49-27.41.65-40.36-.821-12.329-3.311-24.49-7.4-36.15-4.07-10.94-9.77-20.58-17-28a59.76 59.76 0 0 0-25-15.21 61.16 61.16 0 0 0-29-.34 82.55 82.55 0 0 0-28.94 14 143.91 143.91 0 0 0-26.16 25.45c-8 10.1-15.23 21.4-23 33.29l-.21.31a8 8 0 0 1-14.66-4.83zm441.16 127.6a144.17 144.17 0 0 1 10-44.67 127.5 127.5 0 0 1 26.47-40.55c11.8-11.93 26.84-22 44.29-27.2 36.409-11.092 75.897 1.235 99.53 31.07a106.09 106.09 0 0 1 21 47 131.3 131.3 0 0 1-.34 48 160.46 160.46 0 0 1-15.32 42.76 7.91 7.91 0 0 1-14.89-4.15v-.36c.86-14 1.49-27.4.65-40.36-.821-12.329-3.311-24.49-7.4-36.15-4.07-10.94-9.77-20.58-17-28-6.942-7.064-15.534-12.288-25-15.2a61.16 61.16 0 0 0-29-.35 82.33 82.33 0 0 0-28.94 14 143.83 143.83 0 0 0-26.16 25.44c-8 10.11-15.23 21.4-23 33.29l-.21.31a8 8 0 0 1-14.66-4.83z" class="C"/><g class="D"><path d="M367.455 162.845c-11 9.57-16.8 26.95-8.78 39.16 7.13 10.85 21.56 13.59 34.41 15.38l139 19.35 197.08 27.43c21.14 3 49.19 1.85 55.6-18.52 6.09-19.37-14.12-36.3-32.09-45.76a560.09 560.09 0 0 0-198-60.56c-54.45-6.17-141.82-15.88-187.22 23.52zm672.02 163.09c-7.58 25.58-50.93 18.84-102.37 3.6s-91.46-33.21-83.88-58.79 55.42-34 106.85-18.73 86.99 48.34 79.4 73.92z" opacity=".2"/><path d="M387.845 861.505c-21.36 4.68-42.2 16.1-53.36 34.9s-10.08 45.54 6.06 60.29c16.29 14.9 41.24 13.88 63.09 10.69s45.58-7.33 64.86 3.43c23.74 13.25 32.74 45 57 57.34 22.71 11.55 52.89.19 66-21.66s10.58-50.84-2.34-72.8-34.84-37.5-58.36-47.33c-42.18-17.61-97.32-34.85-142.95-24.86zm179.86 243.9a52 52 0 0 0 26.49 77.18c10.06 3.53 22.4 3.43 30.13-3.9 7.48-7.1 8.47-18.58 7.9-28.87-.91-16.28-3.78-48.56-18.66-59.26-15.05-10.81-37.08 1.21-45.86 14.85z" class="B"/></g><path d="M1629.225 1144.625s2.12-74.62 88-89.9l65.45 1.3 71.84 18.4-11.3 25.25-57.34 45-95.23 66-69.2 28.28z" class="B C"/><defs ><path id="B" d="M1551.465 1298.935v.05c-318.55 252.1-597.32 593.73-749.95 964.59-25.13-5.06-49-15.7-67-35.56-65.84-72.38-26.74-128 21.11-192.17s4.07-37 4.07-37l41.67-71s322.61-272 342.52-310.91 35.92-142.24 43.59-188.31 107.49-48.47 162.89-125.77 110.58-105.32 110.58-105.32z"/></defs></svg>