<svg xmlns="http://www.w3.org/2000/svg" width="24" height="24" viewBox="0 0 24 24">
  <path id="twitter-logo" d="M17.967.2H6.014A6.029,6.029,0,0,0,0,6.219V18.2a6.025,6.025,0,0,0,6.014,6H17.986A6.029,6.029,0,0,0,24,18.181V6.219A6.058,6.058,0,0,0,17.967.2Zm-.019,8.99v.4A8.606,8.606,0,0,1,9.212,18.2a8.757,8.757,0,0,1-4.7-1.352c.247.019.476.038.723.038a6.127,6.127,0,0,0,3.807-1.3,3.067,3.067,0,0,1-2.874-2.1,2.9,2.9,0,0,0,.571.057,2.833,2.833,0,0,0,.818-.114,3.043,3.043,0,0,1-2.417-2.971v-.038a2.942,2.942,0,0,0,1.37.381,2.989,2.989,0,0,1-.952-4.038,8.79,8.79,0,0,0,6.319,3.162,2.806,2.806,0,0,1-.076-.686,3.043,3.043,0,0,1,3.064-3.029,3.118,3.118,0,0,1,2.246.952,5.711,5.711,0,0,0,1.941-.743A3.1,3.1,0,0,1,17.7,8.1a6.077,6.077,0,0,0,1.77-.476A6.252,6.252,0,0,1,17.948,9.19Z" transform="translate(0 -0.2)"/>
</svg>
